# xmcd CD database file
#
# Track frame offsets:
#	150
#	12456
#	25434
#	48463
#	62260
#	75802
#	90357
#	113717
#	130755
#	155320
#	176537
#	190728
#	212809
#	229664
#	243107
#	255676
#	272104
#	283509
#	310709
#
# Disc length: 4355 seconds
#
# Revision: 0
# Processed by: cddbd v1.5.1PL2 Copyright (c) Steve Scherf et al.
# Submitted via: CDex 1.51
#
DISCID=eb110113
DTITLE=Verschiedene - 9. New Orleans Music Festival Wendelstein
DYEAR=1999
DGENRE=Blues
TTITLE0=B. B. and The Blues Shacks - Weather Girl
TTITLE1=Bob Hall - Sheik Of Araby
TTITLE2=Buddy Miles Express - All Along The Watchtower
TTITLE3=C. J. Chenier - Man Smart Woman Smarter
TTITLE4=C. J. Chenier - Zydeco Cha Cha
TTITLE5=Chicken Shack - I'd Rather Go Blind
TTITLE6=Chicken Shack - Poor Boy
TTITLE7=Friend'n'Fellow - Me And Bobbie McGee
TTITLE8=Hiram Bullock Band - Mustang Sally
TTITLE9=John Hammond - Heartattack And Vine
TTITLE10=John Hammond - Se That My Grave Is Kept Clean
TTITLE11=Les Haricots Rouges - Melancholy Blues
TTITLE12=Mighty Sam McClain - All We Need Is Love
TTITLE13=Spencer Davis Group - Gimme Some Lovin'
TTITLE14=Spencer Davis Group - I'm A Man
TTITLE15=Supercharge - Caledonia
TTITLE16=Supercharge - Mellow Saxophone
TTITLE17=Vince Weber - Boogie Woogie Runner
TTITLE18=Vince Weber - I'm The Boogie Man
EXTD=YEAR: 1999
EXTT0=
EXTT1=
EXTT2=
EXTT3=
EXTT4=
EXTT5=
EXTT6=
EXTT7=
EXTT8=
EXTT9=
EXTT10=
EXTT11=
EXTT12=
EXTT13=
EXTT14=
EXTT15=
EXTT16=
EXTT17=
EXTT18=
PLAYORDER=
